<svg width="23" height="21" fill="none" xmlns="http://www.w3.org/2000/svg"><path d="M1.356 18.684l1.482.614V9.323L.167 15.794a2.225 2.225 0 001.19 2.89zm21.478-4.1L17.371 1.36A2.212 2.212 0 0015.383 0c-.292-.005-.59.05-.881.166L6.39 3.537a2.215 2.215 0 00-1.19 2.88l5.458 13.224A2.206 2.206 0 0012.673 21c.287 0 .573-.05.854-.166l8.112-3.37a2.213 2.213 0 001.195-2.88zM7.244 6.632a1.107 1.107 0 01-1.102-1.105c0-.608.496-1.106 1.101-1.106a1.107 1.107 0 010 2.21zM5.04 18.79c0 1.215.992 2.21 2.203 2.21h1.603L5.04 11.782v7.008z" fill="#fff"/></svg>