<svg width="23" height="23" fill="none" xmlns="http://www.w3.org/2000/svg"><path d="M17.641 3.979a1.38 1.38 0 100 2.76 1.38 1.38 0 000-2.76zm5.29 2.783a8.73 8.73 0 00-.529-2.794 5.68 5.68 0 00-1.334-2.036A5.405 5.405 0 0019.032.61a8.395 8.395 0 00-2.794-.541C15.019 0 14.628 0 11.5 0S7.981 0 6.762.069c-.955.02-1.9.203-2.794.54a5.497 5.497 0 00-2.036 1.323A5.405 5.405 0 00.61 3.967a8.395 8.395 0 00-.541 2.795C0 7.981 0 8.372 0 11.5s0 3.519.069 4.738c.02.956.203 1.9.54 2.794.281.77.734 1.466 1.323 2.036a5.496 5.496 0 002.035 1.322c.894.338 1.84.521 2.795.541C7.981 23 8.372 23 11.5 23s3.519 0 4.738-.069c.956-.02 1.9-.203 2.794-.54a5.405 5.405 0 002.036-1.323 5.577 5.577 0 001.334-2.036 8.73 8.73 0 00.529-2.794c0-1.219.069-1.61.069-4.738s0-3.519-.069-4.738zm-2.07 9.338a6.452 6.452 0 01-.391 2.139c-.184.5-.479.953-.862 1.322-.373.38-.825.675-1.323.863a6.452 6.452 0 01-2.139.391c-1.15.057-1.576.069-4.6.069-3.024 0-3.45 0-4.6-.069a6.589 6.589 0 01-2.231-.345 3.76 3.76 0 01-1.265-.862 3.45 3.45 0 01-.851-1.323 6.371 6.371 0 01-.46-2.185c0-1.15-.069-1.576-.069-4.6 0-3.024 0-3.45.069-4.6a6.37 6.37 0 01.403-2.185A3.45 3.45 0 013.45 3.45c.35-.395.781-.71 1.265-.92A6.59 6.59 0 016.9 2.139c1.15 0 1.575-.069 4.6-.069 3.024 0 3.45 0 4.6.069.73.008 1.453.14 2.139.391.523.194.992.51 1.369.92.376.353.67.785.862 1.265.256.7.388 1.44.391 2.185.058 1.15.069 1.575.069 4.6 0 3.024-.011 3.45-.069 4.6zM11.5 5.6a5.9 5.9 0 105.911 5.9A5.888 5.888 0 0011.5 5.6zm0 9.73a3.83 3.83 0 110-7.66 3.83 3.83 0 010 7.66z" fill="#717171"/></svg>