<svg width="23" height="23" fill="none" xmlns="http://www.w3.org/2000/svg"><path d="M14.157 17.58l-1.485 1.496v-6.433a1.15 1.15 0 00-2.303 0v6.433L8.886 17.58a1.156 1.156 0 00-1.635 1.634l3.453 3.452c.11.105.239.187.38.242a1.082 1.082 0 00.875 0c.141-.055.27-.137.38-.242l3.453-3.452a1.156 1.156 0 10-1.634-1.634zM18.91 4.84A8.056 8.056 0 0010.394.08a8.058 8.058 0 00-6.862 6.936 4.604 4.604 0 00-1.981 7.921 4.605 4.605 0 003.063 1.158 1.151 1.151 0 100-2.301 2.303 2.303 0 110-4.603A1.151 1.151 0 005.765 8.04a5.753 5.753 0 014.816-5.664 5.757 5.757 0 016.384 3.811 1.15 1.15 0 00.898.771 3.454 3.454 0 012.148 5.428 3.453 3.453 0 01-1.872 1.293 1.154 1.154 0 00.576 2.232 5.756 5.756 0 004.284-5.461 5.752 5.752 0 00-4.088-5.61z" fill="#fff"/></svg>